<svg xmlns="http://www.w3.org/2000/svg" width="21" height="20" viewBox="0 0 21 20" fill="none">
  <path d="M19.1937 8.75002V12.9167C19.1937 15.8334 17.5227 17.0834 15.0162 17.0834H6.66116C4.15465 17.0834 2.48364 15.8334 2.48364 12.9167V7.08335C2.48364 4.16669 4.15465 2.91669 6.66116 2.91669H12.5097" stroke="#7F56D8" stroke-width="1.5" stroke-miterlimit="10" stroke-linecap="round" stroke-linejoin="round"/>
  <path d="M6.66138 7.5L9.27651 9.58333C10.1371 10.2667 11.5491 10.2667 12.4096 9.58333L13.3955 8.8" stroke="#7F56D8" stroke-width="1.5" stroke-miterlimit="10" stroke-linecap="round" stroke-linejoin="round"/>
  <path d="M17.1051 6.66667C18.2587 6.66667 19.1939 5.73393 19.1939 4.58333C19.1939 3.43274 18.2587 2.5 17.1051 2.5C15.9515 2.5 15.0164 3.43274 15.0164 4.58333C15.0164 5.73393 15.9515 6.66667 17.1051 6.66667Z" stroke="#7F56D8" stroke-width="1.5" stroke-miterlimit="10" stroke-linecap="round" stroke-linejoin="round"/>
</svg>  