<svg xmlns="http://www.w3.org/2000/svg" width="21" height="20" viewBox="0 0 21 20" fill="none">
  <path d="M18.7047 9.58335V12.9167C18.7047 15.8334 17.0337 17.0834 14.5272 17.0834H6.17214C3.66564 17.0834 1.99463 15.8334 1.99463 12.9167V7.08335C1.99463 4.16669 3.66564 2.91669 6.17214 2.91669H10.3497" stroke="#7F56D8" stroke-width="1.5" stroke-miterlimit="10" stroke-linecap="round" stroke-linejoin="round"/>
  <path d="M6.17236 7.5L8.78749 9.58333C9.64806 10.2667 11.0601 10.2667 11.9206 9.58333" stroke="#7F56D8" stroke-width="1.5" stroke-miterlimit="10" stroke-linecap="round" stroke-linejoin="round"/>
  <path d="M16.5994 2.35001L16.8333 2.82501C16.9503 3.05834 17.2427 3.27501 17.5017 3.32501L17.8192 3.37501C18.7717 3.53334 18.9972 4.23334 18.3121 4.92501L18.0197 5.21667C17.8275 5.41667 17.7189 5.80001 17.7774 6.06667L17.8192 6.24168C18.0782 7.39168 17.4683 7.83333 16.4657 7.23333L16.2484 7.10834C15.9894 6.95834 15.5717 6.95834 15.3127 7.10834L15.0954 7.23333C14.0845 7.84167 13.4746 7.39168 13.7419 6.24168L13.7837 6.06667C13.8422 5.80001 13.7336 5.41667 13.5414 5.21667L13.249 4.92501C12.5639 4.23334 12.7895 3.53334 13.7419 3.37501L14.0594 3.32501C14.3101 3.28334 14.6109 3.05834 14.7278 2.82501L14.9618 2.35001C15.4129 1.44168 16.1482 1.44168 16.5994 2.35001Z" stroke="#7F56D8" stroke-width="1.5" stroke-linecap="round" stroke-linejoin="round"/>
</svg>