<svg xmlns="http://www.w3.org/2000/svg" width="19" height="19" viewBox="0 0 19 19" fill="none">
    <path fill-rule="evenodd" clip-rule="evenodd" d="M4.72909 2.20831C2.20825 2.20831 2.20825 2.39898 2.20825 4.72915V4.75206C2.20825 5.76681 2.20825 6.50015 2.45667 6.80998C2.69959 7.11065 3.421 7.24998 4.72909 7.24998C6.03717 7.24998 6.75859 7.10973 7.0015 6.80906C7.24992 6.50015 7.24992 5.76681 7.24992 4.75115C7.24992 2.39898 7.24992 2.20831 4.72909 2.20831ZM4.72909 8.62498C3.18359 8.62498 2.024 8.46273 1.38692 7.67165C0.833252 6.98506 0.833252 6.04823 0.833252 4.75206L1.52075 4.72915H0.833252C0.833252 2.09831 0.999169 0.833313 4.72909 0.833313C8.459 0.833313 8.62492 2.09831 8.62492 4.72915C8.62492 6.04731 8.62492 6.98506 8.07125 7.67165C7.43417 8.46273 6.27459 8.62498 4.72909 8.62498Z" fill="#7F56D8"/>
    <path fill-rule="evenodd" clip-rule="evenodd" d="M14.8123 2.20831C12.2915 2.20831 12.2915 2.39898 12.2915 4.72915V4.75206C12.2915 5.76681 12.2915 6.50015 12.5399 6.80998C12.7828 7.11065 13.5043 7.24998 14.8123 7.24998C16.1204 7.24998 16.8418 7.10973 17.0848 6.80906C17.3332 6.50015 17.3332 5.76681 17.3332 4.75115C17.3332 2.39898 17.3332 2.20831 14.8123 2.20831ZM14.8123 8.62498C13.2668 8.62498 12.1073 8.46273 11.4702 7.67165C10.9165 6.98506 10.9165 6.04823 10.9165 4.75206L11.604 4.72915H10.9165C10.9165 2.09831 11.0824 0.833313 14.8123 0.833313C18.5423 0.833313 18.7082 2.09831 18.7082 4.72915C18.7082 6.04731 18.7082 6.98506 18.1545 7.67165C17.5174 8.46273 16.3578 8.62498 14.8123 8.62498Z" fill="#7F56D8"/>
    <path fill-rule="evenodd" clip-rule="evenodd" d="M4.72909 12.2916C2.20825 12.2916 2.20825 12.4823 2.20825 14.8125V14.8354C2.20825 15.8501 2.20825 16.5835 2.45667 16.8933C2.69959 17.194 3.421 17.3333 4.72909 17.3333C6.03717 17.3333 6.75859 17.193 7.0015 16.8924C7.24992 16.5835 7.24992 15.8501 7.24992 14.8345C7.24992 12.4823 7.24992 12.2916 4.72909 12.2916ZM4.72909 18.7083C3.18359 18.7083 2.024 18.546 1.38692 17.755C0.833252 17.0684 0.833252 16.1315 0.833252 14.8354L1.52075 14.8125H0.833252C0.833252 12.1816 0.999169 10.9166 4.72909 10.9166C8.459 10.9166 8.62492 12.1816 8.62492 14.8125C8.62492 16.1306 8.62492 17.0684 8.07125 17.755C7.43417 18.546 6.27459 18.7083 4.72909 18.7083Z" fill="#7F56D8"/>
    <path fill-rule="evenodd" clip-rule="evenodd" d="M14.8123 12.2916C12.2915 12.2916 12.2915 12.4823 12.2915 14.8125V14.8354C12.2915 15.8501 12.2915 16.5835 12.5399 16.8933C12.7828 17.194 13.5043 17.3333 14.8123 17.3333C16.1204 17.3333 16.8418 17.193 17.0848 16.8924C17.3332 16.5835 17.3332 15.8501 17.3332 14.8345C17.3332 12.4823 17.3332 12.2916 14.8123 12.2916ZM14.8123 18.7083C13.2668 18.7083 12.1073 18.546 11.4702 17.755C10.9165 17.0684 10.9165 16.1315 10.9165 14.8354L11.604 14.8125H10.9165C10.9165 12.1816 11.0824 10.9166 14.8123 10.9166C18.5423 10.9166 18.7082 12.1816 18.7082 14.8125C18.7082 16.1306 18.7082 17.0684 18.1545 17.755C17.5174 18.546 16.3578 18.7083 14.8123 18.7083Z" fill="#7F56D8"/>
</svg>