<svg xmlns="http://www.w3.org/2000/svg" width="22" height="22" viewBox="0 0 22 22" fill="none">
    <path d="M15.2376 3.81785C17.0635 3.81785 18.5318 5.24435 18.5318 6.99795C18.5318 8.7152 17.12 10.1144 15.36 10.178C15.2787 10.169 15.1966 10.169 15.1153 10.178M17.0541 18.3554C17.7318 18.2191 18.3718 17.9557 18.8988 17.565C20.3671 16.5019 20.3671 14.7483 18.8988 13.6852C18.3812 13.3036 17.7506 13.0492 17.0824 12.9038M8.41412 10.0599C8.32 10.0508 8.20706 10.0508 8.10353 10.0599C7.02325 10.0245 5.99966 9.58458 5.24953 8.83328C4.4994 8.08198 4.08164 7.07832 4.08471 6.03484C4.08471 3.80877 5.94824 2.00066 8.26353 2.00066C9.37057 1.98138 10.4402 2.38744 11.2371 3.12951C12.034 3.87158 12.493 4.88888 12.5129 5.9576C12.5329 7.02633 12.1123 8.05894 11.3436 8.82828C10.5749 9.59761 9.52116 10.0407 8.41412 10.0599ZM3.70824 13.4127C1.43059 14.8846 1.43059 17.2833 3.70824 18.7461C6.29647 20.418 10.5412 20.418 13.1294 18.7461C15.4071 17.2742 15.4071 14.8755 13.1294 13.4127C10.5506 11.7499 6.30588 11.7499 3.70824 13.4127Z" stroke="#7F56D8" stroke-width="1.5" stroke-linecap="round" stroke-linejoin="round"/>
</svg>