<svg xmlns="http://www.w3.org/2000/svg" width="16" height="20" viewBox="0 0 16 20" fill="none">
    <path fill-rule="evenodd" clip-rule="evenodd" d="M7.8981 10.5672H7.92744C10.6114 10.5672 12.794 8.38457 12.794 5.70057C12.794 3.01657 10.6114 0.833069 7.92744 0.833069C5.24252 0.833069 3.05902 3.01657 3.05902 5.69782C3.04985 8.37449 5.2196 10.5589 7.8981 10.5672ZM4.36802 5.70057C4.36802 3.73799 5.96485 2.14207 7.92744 2.14207C9.8891 2.14207 11.485 3.73799 11.485 5.70057C11.485 7.66224 9.8891 9.25907 7.92744 9.25907H7.90085C5.94652 9.25174 4.3616 7.65674 4.36802 5.70057Z" fill="#7F56D8"/>
    <path fill-rule="evenodd" clip-rule="evenodd" d="M0.666504 15.6586C0.666504 19.0475 6.13167 19.0475 7.92742 19.0475C11.0432 19.0475 15.1865 18.6983 15.1865 15.677C15.1865 12.288 9.72317 12.288 7.92742 12.288C4.81075 12.288 0.666504 12.6373 0.666504 15.6586ZM2.0415 15.6586C2.0415 14.334 4.0215 13.663 7.92742 13.663C11.8324 13.663 13.8115 14.3405 13.8115 15.677C13.8115 17.0015 11.8324 17.6725 7.92742 17.6725C4.0215 17.6725 2.0415 16.9951 2.0415 15.6586Z" fill="#7F56D8"/>
</svg>